<?xml version="1.0" encoding="utf-8"?>
<!-- Generator: Adobe Illustrator 25.2.1, SVG Export Plug-In . SVG Version: 6.00 Build 0)  -->
<svg version="1.1" id="Camada_1" xmlns="http://www.w3.org/2000/svg" xmlns:xlink="http://www.w3.org/1999/xlink" x="0px" y="0px"
	 viewBox="0 0 1920 481.5" style="enable-background:new 0 0 1920 481.5;" xml:space="preserve">
<style type="text/css">
	.st0{fill:#0061F2;}
	.st1{fill-rule:evenodd;clip-rule:evenodd;fill:#0061F2;}
</style>
<path class="st0" d="M107.6,311.4c7.9,10.2-1.7,0,8.8,10.4c60.7,60.6,133.2,49.1,198.5,33.2c-11.6,37.7-42.7,53-75.3,71.9
	c53.7-7.4,65.5-20.1,107.7-36.8c-34.6,38.1-107,57.6-172.8,41.7C38.4,399,5.8,254.1,46.7,154.7c28.5-69.3,73.9-84,110.2-109.2
	C69.4,50.8,37.5,153,19.9,212.2C16.8,156,55.1,89.3,79.2,66.2c33-31.6,77.8-45.5,138.9-58.1C116.5-8.4,28.2,90.6,9.1,168.9
	c-58.3,239.8,213.5,398.2,372.9,246c137.6-131.4,12.4-191.6,20.7-256.3c30.5,10.7,20.9-11.3,52.5,0.5c-3.7-20.1-22-35.3-39.8-43.5
	c-55-25-16-9.2-33.3-33.2c-16.3,10.7-15.8,20-3.6,28.7c-19,1.7-33.9-6.3-46-16.2c-15.8-13-5.9-3.6-14.5-19.4
	c-2.8-5-2.8-5.7-5.8-10.8l-4.7-6.5c-17.6,36.3,18.6,40.5,46.2,55c-56.8,6.6-81.1,1.2-101.7-30.2c-5.1-7.8-3-6.1-8.2-11.4
	c-6.2,75.8,77,65,125,51c-6.8,39.9-9.5,49.6,0.5,89.4c-80.9,6.2-144.2-25.2-166.1-96.8c-8-26.3-5-54.4-16.7-70.8
	c-14.7,44.7-39.4,89.1-11.6,139.3c21.9,39.6,53.6,53.5,91.3,79.7c-93.4,1.9-136-61.4-171.7-113C105.2,285.7,242.9,312,267.6,328.5
	C210.2,343.6,148.2,323,107.6,311.4L107.6,311.4z"/>
<g>
	<g>
		<g>
			<path class="st1" d="M1296.2,104.9c-6.4-4.3-14.2-7-23.3-8.4c-4.7-0.5-9-0.9-12.8-1.2c-3.9-0.3-7.3-0.4-10.2-0.4
				c-7.9,2.1-15.6,6.5-23.3,13.2c-7.2,6.9-10.7,14.8-10.7,23.6V355h71.1V168c4,6.9,17.3,19.7,39.9,38.4c22.5,19,46.2,38.9,71.1,60.1
				c12.4,10.6,24,20.5,34.9,29.8c11,9.2,21.5,17.7,31.3,25.4c9.9,7.8,17.2,13.6,22,17.5s7.3,5.7,7.3,5.7c10.3,6.9,21.7,11.3,34,13.2
				c11.8,2.5,24.2,1.3,37.1-3.2c4.4-2.7,8.5-6.5,12.2-11.6c4.2-5.9,6.3-12.1,6.3-18.4V131.7c-11.6,7.6-25.3,11.9-39.9,11.9
				c-12.3,0-23.8-3.1-34.1-8.5v156.8L1296.2,104.9z"/>
			<path class="st1" d="M1566.8,139.6l96.8,80.9l-62.1,53.6v77.4l108.4-91l107.7,93.3h92.6l-157.3-133.2l151.4-123.7h-89.6
				l-104.8,86.8l-99.3-82C1601,119.5,1585.4,133.2,1566.8,139.6L1566.8,139.6z"/>
			<path class="st1" d="M1543.3,6.6c27,0,48.7,23.6,48.7,52.7s-21.8,52.7-48.7,52.7c-26.9,0-48.7-23.6-48.7-52.7
				S1516.3,6.6,1543.3,6.6L1543.3,6.6z"/>
		</g>
		<g>
			<path class="st1" d="M630.3,381.6v16.8h-30.6v74.8h-21v-74.8H548v-16.8L630.3,381.6L630.3,381.6z M758.4,456.3v16.8H696v-91.5
				h61.6v16.8h-40.5v19.2h38.6v16.8h-38.6v22L758.4,456.3L758.4,456.3z M906.3,445.4v19.9c-10.5,6.1-21.7,9.1-33.2,9.1
				c-15,0-27-4.5-35.9-13.5s-13.4-20.1-13.4-33.3s4.7-24.4,14.1-33.6c9.4-9.2,21.7-13.8,36.8-13.8c12.1,0,22.3,2.7,30.6,8.1v20.4
				c-10.2-6.2-19.9-9.4-29.1-9.4c-9,0-16.3,2.7-22.1,7.9c-5.7,5.2-8.6,11.9-8.6,20c0,8.2,2.9,14.9,8.5,20.2c5.6,5.3,12.9,8,21.7,8
				c4.4,0,8.6-0.6,12.6-1.8C892.3,452.3,898.3,449.6,906.3,445.4L906.3,445.4z M1061.6,381.6v91.5h-17.7L997,414.5v58.6h-21.1v-91.5
				h19.3l45.2,56v-56H1061.6z M1178.4,380.3c14.4,0,26,4.7,35,14.2c8.9,9.4,13.4,20.4,13.4,32.9c0,12.8-4.5,23.7-13.6,33.1
				c-9,9.3-20.7,14-34.8,14c-14.3,0-26-4.7-35-13.9c-9-9.3-13.5-20.3-13.5-33.2c0-12.6,4.5-23.6,13.5-33
				C1152.1,385,1163.8,380.3,1178.4,380.3L1178.4,380.3z M1178.4,455.4c8,0,14.5-2.6,19.3-7.8c4.9-5.1,7.4-11.8,7.4-20.3
				s-2.5-15.2-7.4-20.3c-4.9-5.1-11.3-7.7-19.3-7.7c-8.1,0-14.5,2.6-19.4,7.7s-7.4,12-7.4,20.3c0,8.4,2.5,15.1,7.4,20.3
				C1163.8,452.8,1170.3,455.4,1178.4,455.4L1178.4,455.4z M1359.4,456.3v16.8h-64.6v-91.5h21v74.8L1359.4,456.3L1359.4,456.3z
				 M1468.8,380.3c14.4,0,26,4.7,35,14.2c8.9,9.4,13.4,20.4,13.4,32.9c0,12.8-4.5,23.7-13.6,33.1c-9,9.3-20.6,14-34.8,14
				c-14.4,0-26-4.7-35-13.9c-9-9.3-13.5-20.3-13.5-33.2c0-12.6,4.5-23.6,13.4-33C1442.6,385,1454.4,380.3,1468.8,380.3L1468.8,380.3
				z M1468.8,455.4c8,0,14.5-2.6,19.3-7.8c4.9-5.1,7.4-11.8,7.4-20.3s-2.5-15.2-7.4-20.3c-4.9-5.1-11.3-7.7-19.3-7.7
				c-8.1,0-14.5,2.6-19.4,7.7s-7.4,12-7.4,20.3c0,8.4,2.5,15.1,7.4,20.3S1460.7,455.4,1468.8,455.4L1468.8,455.4z M1666,387.8v20
				c-10.8-5.6-21.4-8.5-31.7-8.5c-9.9,0-17.6,2.7-23,8.2c-5.4,5.4-8.1,12.4-8.1,20.8c0,8.1,2.8,14.6,8.1,19.6
				c5.3,5,12.5,7.5,21.2,7.5c4.6,0,9.3-1.1,14-3.3v-10.7h-12.3v-16.8h33.4V462c-3.4,3.6-8.4,6.6-15.2,8.9
				c-6.8,2.3-13.7,3.5-20.3,3.5c-14.7,0-26.9-4.4-36.4-13.3c-9.5-8.8-14.2-20-14.2-33.7c0-13.9,4.7-25.3,14.2-34.1
				s21.8-13.2,36.8-13.2C1645.1,380.3,1656.2,382.8,1666,387.8L1666,387.8z M1760.7,381.6v91.5h-21v-91.5H1760.7z M1882.5,381.6
				l37.5,91.5h-22.7l-6.9-18.1h-37.8l-6.3,18.1h-22.4l34-91.5H1882.5L1882.5,381.6z M1884.1,439l-13.7-35.5L1858,439H1884.1z"/>
		</g>
		<g>
			<path class="st1" d="M1013,152.1c59.4-0.1,118.8-0.1,178.3-0.1V98.8H862.9c39.6,22.3,27.7,40,88.2,53.3H1013L1013,152.1z
				 M813.1,98.8H640.9c-18.5,49.3-52.9,74-99.6,79.4l-0.1,177.5h71.1V252.4h209.5v-50.1H612.2v-50.1h261
				C860,134.6,840,116.7,813.1,98.8L813.1,98.8z M871.8,198.8v156.9H1239v-56.8H945.8v-46.4h212.9v-53.6L871.8,198.8L871.8,198.8z"
				/>
			<path class="st1" d="M1013.8,47.5h69.9l68.1,38.7h-109.9l-7.2-4.3l-6.8,4.3h-72.2C976.9,76.6,996.3,63.6,1013.8,47.5L1013.8,47.5
				z"/>
		</g>
	</g>
	<path class="st1" d="M641.2,98.8c-1.2,3.3-2.5,6.4-4,9.4c-3.2,6.7-6.1,12.2-9.9,18l-12.1,15.7c-11.1,12.9-25.1,21.9-40.2,28.4
		c-6.1,2.7-26.5,7.8-32.8,7.8v0.4c26,0,42.8-7.6,63.2-20.8c5.7-3.7,10.5-8.4,15.5-12.4c10.1-8,19.4-19.2,27.8-29.4
		c2.1-2.6,4.2-5.7,6.1-8.3c2.6-3.3,4.6-6,6.4-8.7L641.2,98.8L641.2,98.8z"/>
</g>
</svg>
